# xmcd CD database file
#
# Track frame offsets:
#	150
#	19081
#	46375
#	68471
#	85868
#	103727
#	130563
#	154076
#	177558
#	194509
#	217945
#	242155
#	267073
#	288049
#
# Disc length: 4090 seconds
#
# Revision: 2
# Processed by: cddbd v1.4PL0 Copyright (c) Steve Scherf et al.
# Submitted via: CDex 1.50Beta7
#
DISCID=b90ff80e
DTITLE=Native Vibe - Medicinal Purposes
DYEAR=1996
DGENRE=Jazz
TTITLE0=Andalusian Affair
TTITLE1=Y.S.T.
TTITLE2=Sad To See You Go
TTITLE3=Keteke
TTITLE4=A Cool Warmth
TTITLE5=Medicinal Purposes
TTITLE6=Samurai
TTITLE7=Limpopo Crossing
TTITLE8=Akumbia
TTITLE9=Purple Flower
TTITLE10=Overlook Road
TTITLE11=A Parting Glance
TTITLE12=Clouds Over The Congo
TTITLE13=Y.S.T. (radio edit)
EXTD=YEAR: 1996
EXTT0=
EXTT1=
EXTT2=
EXTT3=
EXTT4=
EXTT5=
EXTT6=
EXTT7=
EXTT8=
EXTT9=
EXTT10=
EXTT11=
EXTT12=
EXTT13=
PLAYORDER=
